<svg width="21" height="25" viewBox="0 0 21 25" fill="none" xmlns="http://www.w3.org/2000/svg">
<path d="M19.7857 18.0155C18.7251 16.6028 17.2109 15.5909 15.4928 15.1468L15.4392 15.1353L14.2014 17.2083C14.2006 17.4843 14.0897 17.7487 13.893 17.9439C13.6963 18.1391 13.4297 18.2491 13.1516 18.2499C12.5741 18.2499 12.1017 17.7812 11.5505 16.402V16.3687C11.5505 16.0233 11.4122 15.6921 11.1661 15.448C10.92 15.2038 10.5862 15.0666 10.2382 15.0666C9.89012 15.0666 9.55632 15.2038 9.31021 15.448C9.0641 15.6921 8.92584 16.0233 8.92584 16.3687V16.403V16.401C8.33791 17.7812 7.86127 18.2489 7.28489 18.2489C7.00671 18.2481 6.74015 18.138 6.54344 17.9429C6.34673 17.7477 6.23585 17.4832 6.23502 17.2072L5.03607 15.1301C3.30614 15.5667 1.77807 16.5757 0.704315 17.9905L0.689617 18.0103C0.264 18.701 0.0270012 19.4897 0.00195312 20.2989V20.3062C0.00720247 20.4624 0.00195312 20.6447 0.00195312 20.827V22.9103C0.00195313 23.4629 0.223175 23.9928 0.616952 24.3835C1.01073 24.7742 1.54481 24.9937 2.10169 24.9937H18.3747C18.9315 24.9937 19.4656 24.7742 19.8594 24.3835C20.2532 23.9928 20.4744 23.4629 20.4744 22.9103V20.827C20.4744 20.6458 20.4691 20.4624 20.4744 20.3062C20.4479 19.4878 20.2069 18.6904 19.7752 17.9926L19.7867 18.0135L19.7857 18.0155ZM4.72531 5.51034C4.72531 8.552 6.63607 13.0208 10.2371 13.0208C13.7752 13.0208 15.7489 8.552 15.7489 5.51034V5.44263C15.7489 4.72446 15.6064 4.01333 15.3294 3.34983C15.0524 2.68633 14.6464 2.08346 14.1346 1.57564C13.6227 1.06782 13.0151 0.664991 12.3464 0.390161C11.6777 0.11533 10.9609 -0.026123 10.2371 -0.026123C9.5133 -0.026123 8.79657 0.11533 8.12784 0.390161C7.45912 0.664991 6.8515 1.06782 6.33968 1.57564C5.82787 2.08346 5.42187 2.68633 5.14487 3.34983C4.86788 4.01333 4.72531 4.72446 4.72531 5.44263V5.51346V5.51034Z" fill="#393939"/>
</svg>
